<svg id="Layer_1" data-name="Layer 1" xmlns="http://www.w3.org/2000/svg" viewBox="0 0 2821.16 3196.34"><defs><style>.cls-1{fill:#fc8900;}.cls-2{fill:#e71c24;}.cls-10,.cls-11,.cls-12,.cls-2,.cls-4,.cls-6,.cls-7,.cls-8,.cls-9{fill-rule:evenodd;}.cls-3,.cls-6{fill:#141559;}.cls-4{fill:#ffb68b;}.cls-5{opacity:0.3;}.cls-7{fill:#477ffb;}.cls-8{fill:#8b423b;}.cls-9{fill:#9690a5;}.cls-10{fill:#ffbd4e;}.cls-11,.cls-15{fill:#fff;}.cls-12{fill:#50468f;}.cls-13{opacity:0.5;}.cls-14{opacity:0.62;}.cls-16{opacity:0.4;}</style></defs><circle class="cls-1" cx="1410.58" cy="1410.58" r="1410.58"/><path class="cls-2" d="M1319.65,834.45a891.77,891.77,0,0,1,145.84-79.85,83.17,83.17,0,0,0-145.84,79.85Z" transform="translate(-589.42 -401.83)"/><path class="cls-3" d="M1319.65,861.23a26.81,26.81,0,0,1-23.85-14.6,109.95,109.95,0,0,1,192.78-105.58,26.77,26.77,0,0,1-12.48,38.14,866.19,866.19,0,0,0-141.45,77.45A26.79,26.79,0,0,1,1319.65,861.23Zm74.23-121a56.82,56.82,0,0,0-56.35,50.86,919.24,919.24,0,0,1,81.76-44.76A56,56,0,0,0,1393.88,740.2Z" transform="translate(-589.42 -401.83)"/><path class="cls-4" d="M1365.29,1658.79a106,106,0,1,0,88.84,179.58c256.65,307.23,1058.7,139.21,870.92-249.1Q2376.52,855,2141.6,948.14a621.14,621.14,0,0,0-776.31,710.65Z" transform="translate(-589.42 -401.83)"/><path class="cls-3" d="M1868.68,2024.09q-22.32,0-44.68-1.22c-157.82-8.67-289-60.85-372.76-147.67a132.85,132.85,0,1,1-116.39-236.68c-30.56-212.44,44.63-423.76,204-569.57,163.39-149.6,387.64-205,601.5-148.89,45.4-15.77,85.21-11.44,118.48,12.9,89.73,65.64,119.46,272.66,93.47,651.21,60.9,132.57,20.31,257.11-112.05,342.54C2144.07,1988.76,2007.79,2024.09,1868.68,2024.09Zm-414.55-212.5,1.1,0a26.86,26.86,0,0,1,19.45,9.59c71.69,85.82,200.08,139.83,352.26,148.19,143.33,7.88,286.95-24.9,384.21-87.68,78.42-50.62,157.67-140.42,89.8-280.78a26.69,26.69,0,0,1-2.61-13.53c30.81-439.59-21.7-575-71.18-611.22-19.78-14.46-44.53-15.5-75.69-3.15a26.77,26.77,0,0,1-17,.92c-198.5-54.82-407.65-4.54-559.51,134.5s-220.44,343-183.33,545.52a26.77,26.77,0,0,1-23,31.39,79.25,79.25,0,1,0,66.41,134.22A26.78,26.78,0,0,1,1454.13,1811.59Z" transform="translate(-589.42 -401.83)"/><path class="cls-2" d="M1050.57,1121.85q-50.29,238.19,179.53,546.6a771.71,771.71,0,0,1,251.05-533c110.19,61,293.83,63,546.52-9.66,91-26.17,171.37-83.06,232.46-155.4,39.61,45.08,60.78,122.44,68.91,238,232-7.16,342.67-152.31,239.37-274.81-73.48-87.15-213.13-79.42-312.85-24.14q-96.78-131.09-182.49-190.25C1680.17,601.46,1257.69,767.82,1050.57,1121.85Z" transform="translate(-589.42 -401.83)"/><g class="cls-5"><path class="cls-6" d="M2342.18,1195.61q-88.83-237.12-48.83-258.07,296.58-43.29,277,190.3-78.65,88.58-228.16,67.77" transform="translate(-589.42 -401.83)"/></g><path class="cls-3" d="M1230.1,1695.23a26.77,26.77,0,0,1-21.47-10.78c-157.3-211.08-219.29-402.23-184.26-568.14a26.73,26.73,0,0,1,3.09-8c214.07-365.9,647.18-536.47,1053.3-414.77a26.62,26.62,0,0,1,7.52,3.61c55.21,38.1,114.07,98,175.18,178.19,106.71-50.22,246.82-52.25,325.42,41,45.55,54,57.16,117.5,31.88,174.19-37.87,84.86-149.33,140.29-290.89,144.66a26.66,26.66,0,0,1-27.55-24.89c-6.42-91.45-20.76-155.27-44.6-197.09-63.79,67-140.16,114.6-222.64,138.33-238.11,68.5-427.35,74-549.4,16.33-138.43,132.4-219.51,309.9-228.84,501.9a26.79,26.79,0,0,1-26.74,25.48Zm-154.19-563.64c-26.77,134.33,18.39,289.65,134.3,462.47,25.7-184,113.92-351.76,252.9-478.4a26.76,26.76,0,0,1,31-3.63c108.36,60,290.29,55.88,526.15-12,82.37-23.69,158.23-74.5,219.4-146.94a26.82,26.82,0,0,1,20.2-9.5,27.85,27.85,0,0,1,20.38,9.11c39.67,45.15,63.19,117.82,73.36,227.49,107.09-8.76,191.35-51.27,218.23-111.52,17.08-38.29,8.82-79-23.9-117.84-64.53-76.51-192.11-66.37-279.4-18a26.77,26.77,0,0,1-34.52-7.51c-61.16-82.84-119.25-144-172.73-181.73C1681.51,631.82,1277.5,790.91,1075.91,1131.59Z" transform="translate(-589.42 -401.83)"/><path class="cls-7" d="M2250,902q-93.69-125.31-176.95-182.78c-225.39-67.55-460.53-41.55-659.14,59.69q-25.28,158.08,67.22,356.56Q1711.73,940.61,2250,902Z" transform="translate(-589.42 -401.83)"/><path class="cls-3" d="M1481.15,1162.23a26.72,26.72,0,0,1-24.27-15.46c-63.68-136.61-87-261.81-69.4-372.11A26.78,26.78,0,0,1,1401.77,755c211.09-107.59,452.23-129.43,679-61.49a27.11,27.11,0,0,1,7.53,3.62c57.62,39.77,119.25,103.29,183.17,188.78a26.78,26.78,0,0,1-19.53,42.75c-351.43,25.23-604.94,101.68-753.5,227.22A26.78,26.78,0,0,1,1481.15,1162.23Zm-42.69-365.67c-10.94,88.05,6.89,187.57,53.08,296.41,152-114.05,389.43-185.84,706.94-213.74-48.16-59.73-94.17-105.21-137.19-135.6C1853.42,682.45,1633,701.25,1438.46,796.56Z" transform="translate(-589.42 -401.83)"/><path class="cls-7" d="M1443.48,1042.31a674.08,674.08,0,0,0-297.41,500,1345.11,1345.11,0,0,0,84,126.18,771.71,771.71,0,0,1,251.05-533A925.32,925.32,0,0,1,1443.48,1042.31Z" transform="translate(-589.42 -401.83)"/><path class="cls-3" d="M1230.1,1691.4a22.94,22.94,0,0,1-18.4-9.23,1376.2,1376.2,0,0,1-85.46-128.34,23,23,0,0,1-3-13.63c19.15-211,131.24-399.47,307.54-517a23,23,0,0,1,34.47,11.73,904.74,904.74,0,0,0,36.74,90.82,23,23,0,0,1-5.35,26.66c-147.4,134.32-233.91,318-243.58,517.14a22.92,22.92,0,0,1-22.93,21.84Zm-60.47-154.33c13.1,22.11,27.49,44.67,43,67.47,23-181.49,107-347.68,240.72-474.62-7.8-17.46-14.93-34.71-21.35-51.61C1283.27,1187.35,1188.42,1352.68,1169.63,1537.07Z" transform="translate(-589.42 -401.83)"/><path class="cls-8" d="M1217.87,1651.81q35.91,51.86,64.29,68a106.29,106.29,0,0,1,39.08-45.07,92.08,92.08,0,0,1,44-16q22.38,101.36,78.25,84.82,41.84-40.35-11.59-94.62a302.71,302.71,0,0,0-8.68-255.88q121.85-114.55,141-152.54-2-53-14.2-77.33a340.71,340.71,0,0,1-48.16-17.39c-7.16-3.24-14.11-6.71-20.74-10.4a771.71,771.71,0,0,0-251.05,533Q1223.89,1660.11,1217.87,1651.81Z" transform="translate(-589.42 -401.83)"/><path class="cls-3" d="M1428.54,1772.69a67.05,67.05,0,0,1-34.45-9.35c-20.87-12.31-36.67-36-47.93-72.09a67.29,67.29,0,0,0-9.75,5.6c-.22.15-.45.31-.69.46a79.17,79.17,0,0,0-29.21,33.7,26.79,26.79,0,0,1-37.61,12.11c-22.65-12.91-46.55-37.79-73.05-76.07a26.78,26.78,0,0,1,6.53-37.09,25.55,25.55,0,0,1,3.85-2.27c19.18-197.12,109.48-377.71,256.88-512a26.79,26.79,0,0,1,31.05-3.61c5.91,3.28,12.22,6.45,18.75,9.4a314.71,314.71,0,0,0,44.38,16,26.79,26.79,0,0,1,16.69,13.76c10,19.89,15.56,48.79,17,88.36a26.82,26.82,0,0,1-2.85,13c-8.73,17.33-32.1,51.3-132.41,146.64a328.45,328.45,0,0,1,7.19,244.17c17.37,21.28,26,42.42,25.74,63s-9.21,39.71-26.55,56.44a27,27,0,0,1-11,6.4A79.69,79.69,0,0,1,1428.54,1772.69ZM1365.32,1632a26.77,26.77,0,0,1,26.12,21c10.67,48.33,24.43,61,29.85,64.18a14,14,0,0,0,8.39,1.93c5.36-6.88,5.42-11.61,5.44-13.39.14-9.76-7.77-23.24-22.26-38a26.79,26.79,0,0,1-5.54-29.27,275.23,275.23,0,0,0-7.92-233.23,26.78,26.78,0,0,1,5.52-31.66c90.8-85.36,121.8-123.16,132.23-139.56-1.28-23.7-4.16-39-7.18-48.86a358.3,358.3,0,0,1-39.12-14.93c-1.73-.78-3.46-1.58-5.17-2.39-136.12,130.19-216.8,304-228.31,492.31a244.24,244.24,0,0,0,18,20.26,132.8,132.8,0,0,1,31.07-27.94,118.88,118.88,0,0,1,56.35-20.35A24.43,24.43,0,0,1,1365.32,1632Z" transform="translate(-589.42 -401.83)"/><path class="cls-7" d="M2076.34,1969.33h0c-103,29-221.63,36.29-331.53,18h0q-111.16,7.05-172.31,23.73-142.4,161.22-190.2,282.91a592.38,592.38,0,0,0,300.3,91.71q-10,15-15.45,19.32-38.71,143.67-35.71,245.26l-15.91,1.93q1.55,81.33,35.25,144.84a609.57,609.57,0,0,0,5.79,152.53,35.26,35.26,0,0,0-18.34,49.26q-47.92,77.46-69.53,137.09c31.29,83.52,85.1,127.78,157.39,148.69,35.62,10.31,57.54,12.55,71.46-8.69q153.8-194.23,152.56-311.87l29-3.87q55.62,122.6,47.33,257.82,13,35.94,160.31,23.15,148-708.12,36.75-917.37a131.4,131.4,0,0,0,0-22.68q105-43.31,85.43-75.32-51.93-137.36-111.93-205.68Q2162.84,1978.7,2076.34,1969.33Z" transform="translate(-589.42 -401.83)"/><g class="cls-5"><path class="cls-6" d="M1762.12,2437.2q50-306.16-207.24-380.61,207.87,241.83-49.82,281,144.45,48.76,167.39,38.86,28.72,68.91,89.67,60.79" transform="translate(-589.42 -401.83)"/></g><path class="cls-3" d="M1765.87,3319c-17.23,0-34.29-4.94-47.25-8.69-85.43-24.7-142.68-78.68-175-165a26.7,26.7,0,0,1-.1-18.52c14-38.51,35.91-82.59,65.29-131.19a62,62,0,0,1,18.75-59,638.46,638.46,0,0,1-4.11-134.15c-22-44.18-33.65-94.52-34.7-149.77a26.79,26.79,0,0,1,15.75-24.91c.89-62.44,12.2-135.63,33.7-218.11a619.49,619.49,0,0,1-270.24-93.08,26.78,26.78,0,0,1-10.6-32.41c32.84-83.63,98.47-181.49,195.06-290.85a26.74,26.74,0,0,1,13-8.11c43-11.7,101.07-19.75,177.65-24.61a27.72,27.72,0,0,1,6.1.31c104.56,17.44,218.15,11.28,319.88-17.33a26.83,26.83,0,0,1,10.16-.84c64.36,7,110.83,27.14,138.09,60,41.55,47.42,80.53,118.62,115.87,211.65a45.92,45.92,0,0,1,3.19,36.3c-7.72,23.7-34.35,44.93-85.56,67.81,73.77,149.29,61.34,453.12-37.91,928.13a26.78,26.78,0,0,1-23.9,21.2c-117.66,10.22-173.81-2-187.81-40.73a26.46,26.46,0,0,1-1.55-10.73c4.27-69.8-5.07-137.66-27.8-202.35-15.3,76.21-65.66,167.68-152.66,277.69C1804.84,3312.74,1785.24,3319,1765.87,3319Zm-168.51-183.3c26.73,64.84,70.21,104.1,136.14,123.16,36.28,10.49,39.13,6.18,41.63,2.36.44-.66.9-1.32,1.4-1.94,98.16-124,147.55-223.22,146.78-295a26.78,26.78,0,0,1,23.21-26.83l29-3.87a26.75,26.75,0,0,1,27.93,15.47,563.87,563.87,0,0,1,50.22,260.13c7.74,3.93,33.57,12,110.91,6.76,93.14-452.47,105-748.39,35.23-879.65a26.91,26.91,0,0,1-3.06-14.57,107,107,0,0,0,.07-18,26.77,26.77,0,0,1,16.43-27.45c51.88-21.38,66.84-35.29,70.89-40.33l-.3-.76c-33.32-88.14-69.32-154.58-107-197.48l-.54-.64c-17.42-21.12-50.32-34.76-97.83-40.56-106.84,29.21-225.44,35.48-335,17.68-65.92,4.3-118.43,11.25-156.29,20.66-81.52,93.06-139,176.38-171.25,248.15a566.18,566.18,0,0,0,267.41,75.87,26.77,26.77,0,0,1,21.59,41.53,162.27,162.27,0,0,1-13.78,18.47c-23.73,89.82-34.81,167.36-33,230.55a26.8,26.8,0,0,1-14.77,24.74c3.34,40.78,13.74,77.78,31,110.26a26.72,26.72,0,0,1,3,14.94,586.94,586.94,0,0,0,5.56,145.87,26.78,26.78,0,0,1-16.67,29.22,8.5,8.5,0,0,0-4.4,11.87,26.76,26.76,0,0,1-.93,26.54C1632.67,3058.61,1611.3,3099.87,1597.36,3135.67Z" transform="translate(-589.42 -401.83)"/><path class="cls-4" d="M2015.19,1983.63c-87.31,16.54-181.68,18.45-270.41,3.65h0Q2010.9,2188.5,2015.19,1983.63Z" transform="translate(-589.42 -401.83)"/><path class="cls-3" d="M1943.89,2106.26c-49.89,0-118.28-33.87-210.65-103.71a19.13,19.13,0,0,1,14.69-34.12c85.17,14.19,176.35,13,263.7-3.59a19.12,19.12,0,0,1,22.68,19.19c-1.25,59.5-18.72,97.83-52,113.93C1971,2103.47,1958.19,2106.26,1943.89,2106.26Zm-126.76-91.44c91.46,58.94,131.79,56.83,148.55,48.71,15.55-7.54,25.22-26.64,28.83-56.9A808.26,808.26,0,0,1,1817.13,2014.82Z" transform="translate(-589.42 -401.83)"/><path class="cls-2" d="M2076.34,1969.33h0q-7.51,2.1-15.13,4.08h0q27.87,68.34,51.87,202-66,2.23-84.47,56a36.67,36.67,0,0,1-60.41,18.34q-18.3-18.45-46.33-15.93-41.56,0-84,3.86-7-113.61-186.53-241.63-46.43,6.15-78.84,15-8.22,9.32-16.13,18.48c310.3,170.12,238.75,566.28,75.07,620.72l-15.91,1.93q1.55,81.33,35.25,144.84a609.57,609.57,0,0,0,5.79,152.53,35.26,35.26,0,0,0-18.34,49.26q-47.92,77.46-69.53,137.09c31.29,83.52,85.1,127.78,157.39,148.69,35.62,10.31,57.54,12.55,71.46-8.69q153.8-194.23,152.56-311.87l29-3.87q55.62,122.6,47.33,257.82,13,35.94,160.31,23.15,148-708.12,36.75-917.37a131.41,131.41,0,0,0,0-22.68q-22.47-50.49-36.93-77.44.14-112.46-52.34-242.65Q2109,1972.84,2076.34,1969.33Z" transform="translate(-589.42 -401.83)"/><g class="cls-5"><path class="cls-6" d="M1759,2249.45q132.81-22.12,152.4,13.18-125.76-14.49-10.61,231.18-69.45-83.51-113.93-48.85,8.27-147.12-27.86-195.51" transform="translate(-589.42 -401.83)"/></g><path class="cls-3" d="M1765.61,3315.06c-16.71,0-33.32-4.8-45.93-8.45-84.19-24.34-140.61-77.56-172.5-162.69a23,23,0,0,1-.09-15.88c14-38.62,36.12-82.93,65.77-131.83a58.21,58.21,0,0,1,18.74-58.13,634.93,634.93,0,0,1-4.28-136.42c-22-43.9-33.73-94-34.76-149.08a22.94,22.94,0,0,1,20.21-23.22l13.47-1.64c62.17-22.18,111.73-107.45,120.87-208.52,14-154.48-61.47-292.64-201.8-369.58a22.94,22.94,0,0,1-6.32-35.14c5.33-6.17,10.73-12.37,16.26-18.64a22.88,22.88,0,0,1,11.19-7c22.53-6.14,50.07-11.38,81.85-15.59a23.05,23.05,0,0,1,16.35,4.07c115.08,82.08,178.56,159.44,193.17,235.71,21.18-1.44,42.31-2.18,63.06-2.21,24.66-2,46.45,5.72,63.09,22.21a13.7,13.7,0,0,0,22.31-7.11c.17-.68.36-1.35.59-2,9.26-26.92,30.49-58.64,79.15-68.51-14.37-75.3-29.85-133.55-46.09-173.35a22.95,22.95,0,0,1,15.52-30.9q7.39-1.9,14.69-4a23.08,23.08,0,0,1,8.67-.71c23.2,2.5,44.19,6.74,62.39,12.59a23,23,0,0,1,14.26,13.27c35,86.9,53.19,169.46,54,245.5,9.49,18.16,21.23,43,35,73.85a22.72,22.72,0,0,1,1.86,7,138.41,138.41,0,0,1,.45,20.06c74.13,148,61.82,451.38-37.56,927a23,23,0,0,1-20.48,18.18c-115.64,10-170.6-1.4-183.89-38.23a22.64,22.64,0,0,1-1.32-9.19c4.59-75.16-6.47-148.1-32.93-217.28-11.5,78.28-62.35,173.69-154.43,290.12C1802.67,3309.19,1784.09,3315.06,1765.61,3315.06ZM1593.24,3135.7c27.15,66.85,71.57,107.25,139.2,126.81,39,11.29,42.5,5.94,45.88.78.38-.58.78-1.13,1.21-1.67,98.72-124.68,148.38-224.73,147.6-297.37a23,23,0,0,1,19.9-23l29-3.88a22.92,22.92,0,0,1,23.94,13.27c37.4,82.41,54.12,170.16,49.77,260.93,5.95,3.92,30.19,14.19,118,8,93.86-455,105.79-752.72,35.44-885.07a23,23,0,0,1-2.61-12.49,123.82,123.82,0,0,0,.3-15.24c-13.91-31.12-25.54-55.44-34.58-72.31a23.05,23.05,0,0,1-2.72-10.87c.08-68.75-15.59-144-46.6-223.76q-11-2.89-23.42-5c15,44.8,29.12,104,42.13,176.52a23,23,0,0,1-21.82,27c-44.28,1.49-57.4,23.13-63.27,39.69a59.6,59.6,0,0,1-97.9,28.61c-.27-.24-.53-.49-.79-.74-7.29-7.37-16.16-10.29-28-9.24a20.15,20.15,0,0,1-2.06.1c-26.88,0-54.44,1.26-81.92,3.76a23,23,0,0,1-25-21.44c-4.14-66.65-61.18-140.33-169.59-219.06-17,2.43-32.55,5.17-46.42,8.18,136.5,88.67,208.5,233.9,193.92,395.12-11,121.37-72.61,221.06-153.46,248.43,3.15,42.37,13.76,80.8,31.64,114.46a23,23,0,0,1,2.59,12.81,590.71,590.71,0,0,0,5.58,146.82,22.94,22.94,0,0,1-14.28,25.05,12.31,12.31,0,0,0-6.39,17.21,23,23,0,0,1-.8,22.75C1628.93,3057.41,1607.26,3099.35,1593.24,3135.7Z" transform="translate(-589.42 -401.83)"/><path class="cls-7" d="M1578,3158.27q-98.54,85.61-48.29,178.25,210.87,271.33,237.54,85,9.81-81.42-3.06-129.36c-10.58-.32-23.16-3.24-38.17-7.58C1660.52,3265.61,1610.18,3227.46,1578,3158.27Z" transform="translate(-589.42 -401.83)"/><path class="cls-3" d="M1715,3524.18c-50.53,0-115.33-54.06-206.39-171.22a29.05,29.05,0,0,1-2.4-3.68c-27.57-50.9-40.54-128.86,54.28-211.22a26.79,26.79,0,0,1,41.85,8.93c27.06,58.26,68.74,93.8,131.17,111.84,10,2.91,22.66,6.27,31.56,6.54a26.8,26.8,0,0,1,25,19.82c9.57,35.57,10.8,81.21,3.77,139.51-8,56-28.73,88.52-61.67,97.26A67,67,0,0,1,1715,3524.18Zm-162.7-202.29c118.21,151.67,159.18,150.18,166.18,148.3,7.43-2,17.2-16.79,22.31-52.49,4.9-40.74,5.3-74.88,1.16-101.51-8.06-1.63-16-3.79-23.33-5.91-64.94-18.77-113.37-54.24-147.13-108C1526.57,3253.74,1537.77,3294.28,1552.29,3321.89Z" transform="translate(-589.42 -401.83)"/><path class="cls-7" d="M2186.68,3241.1q-84.61,10-141-6.22-37.59,207.93,107.89,176Q2344.39,3372.29,2186.68,3241.1Z" transform="translate(-589.42 -401.83)"/><path class="cls-3" d="M2118,3441.9c-29.62,0-53.8-8.79-72-26.35-34.5-33.22-43.22-93.88-26.66-185.43a26.78,26.78,0,0,1,33.75-21c33.92,9.75,77.81,11.55,130.48,5.35a26.82,26.82,0,0,1,20.26,6c63.17,52.56,89,97.49,78.92,137.38-9.69,38.42-50.22,64.32-123.87,79.2A190.69,190.69,0,0,1,2118,3441.9Zm-50.24-174.71c-6.93,54.88-1.65,93.4,15.37,109.79,12.31,11.86,34.08,14.44,64.68,7.71,71.33-14.42,81.55-34.19,83-39.91,1.5-5.94,1.79-28.36-52.69-75.82C2136.74,3273.05,2099.8,3272.45,2067.76,3267.19Z" transform="translate(-589.42 -401.83)"/><path class="cls-3" d="M2025.83,2361.86l-1.3,0a26.78,26.78,0,0,1-25.47-28c1.41-29.62,3.69-68,6.75-113.94a26.78,26.78,0,1,1,53.44,3.56c-3,45.65-5.3,83.65-6.7,112.93A26.78,26.78,0,0,1,2025.83,2361.86Z" transform="translate(-589.42 -401.83)"/><path class="cls-4" d="M1682.57,2385.64q-161.13-9.12-273.62-75.77Q1338.8,2550.56,1682,2585.24c24.06,57.57,130.39,98.92,147.73,65.65q77.12,16.86,70.49-27-84.95.93-86.89-81.11,18.35-33.34,60.8-24.13a20.73,20.73,0,0,0,18.38-36.7q-74.64-53.32-130.09-11.73-49.83-49.72-95.31-65.22Q1678.43,2392.8,1682.57,2385.64Z" transform="translate(-589.42 -401.83)"/><path class="cls-3" d="M1803.28,2689.54c-1.32,0-2.67,0-4.06-.09-44.49-1.87-106.73-35.07-134.24-79.12-134-15.53-220.41-54.64-264.06-119.37-33.65-49.91-39.6-113.36-17.68-188.58a26.78,26.78,0,0,1,39.35-15.55c71,42,158.93,66.27,261.49,72.07a26.78,26.78,0,0,1,23.9,35.17q28.57,15.82,58,42.55c33.06-16.31,80.67-20.37,142.07,23.51,19,13.09,25.64,39,15.15,60a47.78,47.78,0,0,1-55.81,24.39c-15.25-3.1-22.44.26-26.9,5.47,2.94,34.15,20,47.48,59.41,47h.3a26.77,26.77,0,0,1,26.47,22.8c3.7,24.56-5.73,39.26-14.28,47.26-18.85,17.65-48.68,16.91-73.75,12.76C1830.71,2685.34,1819.36,2689.54,1803.28,2689.54ZM1427,2350.12c-7.73,44.74-1.65,81.23,18.35,110.9,35.25,52.26,115.78,85.09,239.37,97.57a26.78,26.78,0,0,1,22,16.32c8.29,19.83,34.12,41.31,64.26,53.44,19,7.66,31.92,8.3,36.73,7.33a26.78,26.78,0,0,1,12.79-9.93c-21.27-18.29-33.08-46.23-33.92-82.39a26.83,26.83,0,0,1,3.31-13.53c14-25.53,36.52-39.23,64.63-39.95-38.74-19.86-61.56-9.13-76,1.71a26.76,26.76,0,0,1-35-2.46c-30.17-30.09-58.77-49.88-85-58.82a26.78,26.78,0,0,1-17.33-18.8c-.2-.79-.36-1.59-.49-2.39C1560.5,2400.68,1488.89,2380.9,1427,2350.12Zm450.18,153.72a.83.83,0,0,0,.15.11A.83.83,0,0,1,1877.15,2503.84Z" transform="translate(-589.42 -401.83)"/><path class="cls-3" d="M1950,2990.78a26.78,26.78,0,0,1-3.67-53.3c30.15-4.22,55-10.86,73.78-19.73A26.78,26.78,0,0,1,2043,2966.2c-23.69,11.16-53.7,19.35-89.2,24.32A26.36,26.36,0,0,1,1950,2990.78Z" transform="translate(-589.42 -401.83)"/><path class="cls-3" d="M1662.9,2381.33c3.08-5.4,6.53-9.88,10.18-15.08s7.68-10.73,11.36-17.08c7.54-12.66,13.85-27.5,21.92-43.22a3,3,0,0,1,5.46.32,111.31,111.31,0,0,1,5.88,26.09,114.51,114.51,0,0,1-.41,27.34c-1.31,9.25-3.62,18.87-8.45,27.77s-11.63,17.33-20.86,22.75a19.34,19.34,0,0,1-26.61-26.23Z" transform="translate(-589.42 -401.83)"/><path class="cls-9" d="M1900.23,2623.85q19.77.55,40.67,57.82,163.83,393.78,246.75,554.71,2.61,5,5.14,9.85,69.26,59.43,65,99.31,41.65-56-43.19-246.14-14.76-33-33.28-70.14-96.63-233.49-195-450.9c-35.18-65.25-71.3-56.84-112.18-59.75q-42.45-9.22-60.8,24.13Q1815.25,2624.79,1900.23,2623.85Z" transform="translate(-589.42 -401.83)"/><path class="cls-3" d="M2257.79,3372.32a26.79,26.79,0,0,1-26.61-29.62c.82-7.78-3-30.78-55.83-76.14a26.85,26.85,0,0,1-6.31-7.94l-5.15-9.89c-55.43-107.61-138.76-294.9-247.72-556.78-.15-.36-.29-.72-.43-1.09-9.91-27.14-17.09-37-20-40.25-67.9-1-107.6-39.87-109.17-107.25a26.83,26.83,0,0,1,3.31-13.53c17.74-32.23,48.89-45.6,87.91-37.82,4.45.29,8.84.44,13.18.59,36.13,1.28,81.08,2.87,118.92,73,.3.55.58,1.11.83,1.68,65.35,144.43,130.94,296.11,195,450.82,12.23,24.5,23.46,48.15,33.36,70.34,62.25,139.52,75,226.28,40.22,273.05A26.79,26.79,0,0,1,2257.79,3372.32Zm-43.61-143q14.51,12.7,26,24.81c-6.54-32.93-21.15-79.15-50-143.85-9.7-21.72-20.73-45-32.77-69.06-.29-.57-.56-1.15-.8-1.74-63.8-154.18-129.16-305.31-194.26-449.23-23.06-42.37-40.94-43-73.25-44.15-5.52-.19-11.13-.39-16.82-.8a26.81,26.81,0,0,1-3.79-.54c-16-3.5-23.38-.07-27.93,5.25,2.94,34.15,20,47.48,59.41,47h1c33.41.94,52.21,40.37,64.86,74.84,108.29,260.26,190.92,446,245.61,552.19Z" transform="translate(-589.42 -401.83)"/><path class="cls-4" d="M2388.44,1592.7a101,101,0,0,0-58.75-78.71q-1.92,36.46-4.64,75.28c16.1,33.28,24.91,64.93,27.43,94.82A101,101,0,0,0,2388.44,1592.7Z" transform="translate(-589.42 -401.83)"/><path class="cls-3" d="M2352.47,1710.87a26.77,26.77,0,0,1-26.68-24.53c-2.3-27.34-10.66-56.08-24.84-85.41a26.76,26.76,0,0,1-2.61-13.52c1.81-26,3.36-51.17,4.61-74.84a26.78,26.78,0,0,1,37.71-23,127,127,0,0,1,74.32,99.56s0,0,0,0a127,127,0,0,1-45.5,115.64A26.78,26.78,0,0,1,2352.47,1710.87Zm-.22-126.71q5.72,12.45,10.27,24.84a73.85,73.85,0,0,0-.62-12.74,74.7,74.7,0,0,0-8.7-26.32Q2352.73,1577,2352.25,1584.16Z" transform="translate(-589.42 -401.83)"/><path class="cls-8" d="M2227.1,1023q25.17,39.42,44.18,152.25,44.41,35.31,62.15,83.08c-.66-12-1.5-23.68-2.4-35q-8.51-103.24-30.58-167.12-15.6-43.49-38.39-70.79Q2245.49,1005,2227.1,1023Z" transform="translate(-589.42 -401.83)"/><path class="cls-3" d="M2333.42,1277.48A19.12,19.12,0,0,1,2315.5,1265c-10.52-28.36-29.4-53.51-56.12-74.75a19.14,19.14,0,0,1-7-11.8c-12.19-72.32-26.12-121.15-41.44-145.13a19.13,19.13,0,0,1,2.74-24c11.75-11.49,23.1-23.69,33.75-36.27a19.16,19.16,0,0,1,14.6-6.77h.06a19.15,19.15,0,0,1,14.63,6.88c16.56,19.85,30.59,45.62,41.7,76.58,15.23,44,25.85,101.84,31.63,172,.92,11.53,1.78,23.34,2.44,35.52a19.12,19.12,0,0,1-15.21,19.77A18.53,18.53,0,0,1,2333.42,1277.48ZM2288.93,1165a237.5,237.5,0,0,1,18.77,17.62c-5.82-48-14.3-88.29-25.32-120.15a246.44,246.44,0,0,0-21.86-46.42q-4.79,5.19-9.71,10.25C2265.33,1055.64,2277.87,1101.3,2288.93,1165Z" transform="translate(-589.42 -401.83)"/><polygon class="cls-10" points="1812.19 2434.67 1566.94 2662.56 1688.62 2977.32 1951.25 2743.66 2685.05 2513.85 2603.94 2185.56 1812.19 2434.67"/><g class="cls-5"><path class="cls-6" d="M2540.67,3145.49l455-142.49q-365,145.32-535.19-185-188.77,123.63-304.1,246.39,135.76,302.22,135.75,302.24,248.55-221.14,248.56-221.13" transform="translate(-589.42 -401.83)"/></g><path class="cls-3" d="M2278,3405.93a26.77,26.77,0,0,1-25-17.13L2131.38,3074a26.77,26.77,0,0,1,6.76-29.27l245.24-227.88a26.78,26.78,0,0,1,10.19-5.93l791.75-249.12a26.78,26.78,0,0,1,34,19.12l81.12,328.3a26.79,26.79,0,0,1-18,32l-728.32,228.09-258.32,229.83A26.85,26.85,0,0,1,2278,3405.93Zm-90.16-334.28,101.21,261.82,233.78-208a26.68,26.68,0,0,1,9.79-5.54l709.78-222.29-68.24-276.16-758.79,238.74Z" transform="translate(-589.42 -401.83)"/><polygon class="cls-10" points="1812.19 2434.67 1624.85 2608.72 1499.37 2229.97 1731.09 2058.11 2225.46 1934.51 2321.98 2274.28 1812.19 2434.67"/><path class="cls-3" d="M2214.27,3037.33a26.78,26.78,0,0,1-25.42-18.36l-125.48-378.75a26.8,26.8,0,0,1,9.47-29.93l231.71-171.87A26.81,26.81,0,0,1,2314,2434l494.37-123.6a26.76,26.76,0,0,1,32.25,18.66l96.52,339.77a26.78,26.78,0,0,1-17.71,32.86l-504,158.58L2232.5,3030.17A26.83,26.83,0,0,1,2214.27,3037.33Zm-94-395.56,106.27,320.79,156.8-145.68a26.89,26.89,0,0,1,10.19-5.92l484.95-152.58-82.32-289.77-464,116Z" transform="translate(-589.42 -401.83)"/><path class="cls-3" d="M2435.64,2852.58a26.78,26.78,0,0,1-25.53-18.75L2295,2468a26.78,26.78,0,0,1,51.08-16.08l115.15,365.86a26.79,26.79,0,0,1-25.55,34.83Z" transform="translate(-589.42 -401.83)"/><path class="cls-3" d="M2519.39,3154.1c-10.77-20.18-19.31-41.26-27.39-62.52s-14.88-43-21.69-64.83-13.09-43.77-19.08-65.89c-5.83-22.17-11.47-44.42-15.95-67.15a3.34,3.34,0,0,1,6.08-2.45c12.58,19.44,24,39.36,35.23,59.35q16.59,30.09,32.09,60.62c10.25,20.38,20.54,40.76,29.48,61.67s17.5,42,23.79,64a23.08,23.08,0,0,1-42.56,17.22Z" transform="translate(-589.42 -401.83)"/><polygon class="cls-10" points="1731.09 2058.11 2033.94 1982.38 1985.03 1824.4 1588.2 1941.24 1464.6 2072.55 1521.89 2213.27 1731.09 2058.11"/><path class="cls-3" d="M2111.31,2641.88a26.76,26.76,0,0,1-24.8-16.68l-57.29-140.72a26.74,26.74,0,0,1,5.3-28.45l123.6-131.32a26.78,26.78,0,0,1,11.94-7.33l396.82-116.84a26.78,26.78,0,0,1,33.14,17.77l48.92,158a26.78,26.78,0,0,1-19.09,33.9l-297.67,74.43-204.92,152A26.73,26.73,0,0,1,2111.31,2641.88Zm-26-161.67,37.79,92.81,181.46-134.6A26.81,26.81,0,0,1,2314,2434l275.4-68.86-32.74-105.73-364.52,107.34Z" transform="translate(-589.42 -401.83)"/><path class="cls-3" d="M2252.17,2537.41a26.78,26.78,0,0,1-24.48-15.91L2153.16,2354a26.78,26.78,0,1,1,48.93-21.77l74.53,167.56a26.79,26.79,0,0,1-24.45,37.67Z" transform="translate(-589.42 -401.83)"/><polygon class="cls-11" points="1630.95 2132.38 1554.33 2189.2 1583.38 2241.48 1650.94 2188.36 1630.95 2132.38"/><polygon class="cls-11" points="1647.61 2587.58 1701.04 2537.94 1728.72 2588.61 1679.46 2641.73 1647.61 2587.58"/><polygon class="cls-9" points="2370.8 2773.03 2685.05 2513.85 1951.25 2743.66 1688.62 2977.32 2370.8 2773.03"/><path class="cls-3" d="M2278,3405.93a26.78,26.78,0,0,1-17.8-46.79l262.63-233.66a26.68,26.68,0,0,1,9.79-5.54l733.81-229.81a26.78,26.78,0,0,1,25,46.21l-314.26,259.17a26.94,26.94,0,0,1-9.35,5L2285.72,3404.8A26.85,26.85,0,0,1,2278,3405.93Zm276.12-236.6-168,149.49,561.22-168.07,204.41-168.58Zm406.05,5.52h0Z" transform="translate(-589.42 -401.83)"/><path class="cls-3" d="M2288.18,3441.1a26.78,26.78,0,0,1-25.19-17.71c-9.83-27.29-11.78-37.23-11.74-44.41a26.83,26.83,0,0,1,19.1-25.49l682.18-204.29a26.51,26.51,0,0,1,10.18-1,50.34,50.34,0,0,1,44.74,41.25l0,.15a50.32,50.32,0,0,1-28.19,53.94,27.26,27.26,0,0,1-4,1.48l-679.75,195A27,27,0,0,1,2288.18,3441.1Z" transform="translate(-589.42 -401.83)"/><path class="cls-12" d="M2120.24,3302.52c-32.85,15.22-40.26,87.09-16.56,160.54s69.58,120.67,102.43,105.46,40.29-87.09,16.57-160.54S2153.12,3287.3,2120.24,3302.52Z" transform="translate(-589.42 -401.83)"/><path class="cls-3" d="M2193.13,3598.17a67.46,67.46,0,0,1-27-6c-35.62-15.59-68.49-60.79-87.9-120.92-24.95-77.31-22.37-168.44,30.78-193.06h0c15.87-7.34,33.59-7.13,51.3.61,35.63,15.6,68.49,60.81,87.88,120.93,25,77.3,22.42,168.44-30.8,193.06A57.24,57.24,0,0,1,2193.13,3598.17Zm-61.64-271.34c-13.38,6.19-24.43,59.5-2.33,128,16.22,50.2,41.65,81,58.41,88.3,2.26,1,5.36,2,7.3,1.08,13.4-6.21,24.45-59.51,2.32-128-16.19-50.22-41.61-81-58.38-88.32-3.28-1.44-5.76-1.81-7.32-1.07Z" transform="translate(-589.42 -401.83)"/><path class="cls-12" d="M2122.11,3301.75q22.36-9,80.67-14.92a228.89,228.89,0,0,1,88.83,252q-39.29,12.49-88.3,30.81v0c.93-.34,1.87-.7,2.8-1.13,32.88-15.21,40.29-87.09,16.57-160.54C2199.42,3335.9,2154.8,3289.09,2122.11,3301.75Z" transform="translate(-589.42 -401.83)"/><path class="cls-3" d="M2203.32,3596.45a26.77,26.77,0,0,1-25.05-17.3,26.42,26.42,0,0,1-1.74-9.29,26.77,26.77,0,0,1,17.43-25.3l.65-.24.23-.09c13.43-6.22,24.48-59.52,2.35-128-15.93-49.39-40.4-79.76-57.58-87.94-1.59-.76-5.57-2.44-7.83-1.56a26.78,26.78,0,0,1-19.66-49.82c17.44-7,46.22-12.47,88-16.71a26.8,26.8,0,0,1,18,4.67,255.44,255.44,0,0,1,99.22,281.51,26.77,26.77,0,0,1-17.58,18c-25.54,8.12-54.83,18.34-87.06,30.37A26.42,26.42,0,0,1,2203.32,3596.45Zm16.3-259.82a291.53,291.53,0,0,1,28.53,63.13c13,40.29,18.57,84.34,13.34,120.78,2.65-.89,5.26-1.76,7.85-2.61A201.92,201.92,0,0,0,2219.62,3336.63Z" transform="translate(-589.42 -401.83)"/><path class="cls-12" d="M2932.07,3229.56c84.13,154,149.52,86.4,74.42-92.86l-46.27,38.15a23.35,23.35,0,0,1,7.72,44.42Z" transform="translate(-589.42 -401.83)"/><path class="cls-3" d="M3013.62,3334.39c-22.15,0-55.9-18-98.34-95.66a19.13,19.13,0,0,1,11.52-27.56l33.81-9.7a4.22,4.22,0,0,0-2.18-7.57,19.14,19.14,0,0,1-10.39-33.81l46.27-38.15a19.14,19.14,0,0,1,29.82,7.37c43.28,103.32,45.83,182.3,6.49,201.22A38.86,38.86,0,0,1,3013.62,3334.39Zm-52.69-93.21c29.56,47.66,49.42,55.64,53.19,54.85,6.17-3.61,15.66-42.73-15.77-127.84l-6,4.93A42.39,42.39,0,0,1,2976,3236.6a19.91,19.91,0,0,1-2.82,1.06Z" transform="translate(-589.42 -401.83)"/><path class="cls-12" d="M3103.44,3288.23a265.91,265.91,0,0,0-38.29-199.9l-58.66,48.37c43.21,103.12,39.91,169.31,13.29,177.6Q3070.92,3309.88,3103.44,3288.23Z" transform="translate(-589.42 -401.83)"/><path class="cls-3" d="M3019.76,3333.42a19.13,19.13,0,0,1-5.66-37.39c6.75-3.93,17.46-50-25.26-151.94a19.13,19.13,0,0,1,5.47-22.15l58.66-48.37a19.12,19.12,0,0,1,28.15,4.24,283.06,283.06,0,0,1,41.05,214.29,19.06,19.06,0,0,1-8.13,12.05c-24.27,16.17-55.44,26-92.62,29.2C3020.87,3333.4,3020.31,3333.42,3019.76,3333.42Zm9.74-190.91c23.67,60.1,33.24,111.29,27.57,145.83a133.88,133.88,0,0,0,29.15-12,244.63,244.63,0,0,0-26-159.15Zm73.94,145.72h0Z" transform="translate(-589.42 -401.83)"/><polygon class="cls-6" points="1990.29 2782.99 1849.09 2929.26 1924.06 2906.82 2004.8 2817.75 2253.91 2735.68 2194.2 2825.91 2266.99 2804.1 2360.12 2668.08 1990.29 2782.99"/><path class="cls-9" d="M2042.18,2703.4l61.37-27.07-14.76-44.53,22.52-16.7-16.88-41.44-95.9,31.79Q2020.38,2654,2042.18,2703.4Z" transform="translate(-589.42 -401.83)"/><path class="cls-3" d="M2042.2,2730.18a26.77,26.77,0,0,1-24.51-16q-21.78-49.28-43.58-97.78a26.8,26.8,0,0,1,16-36.41l95.9-31.79a26.76,26.76,0,0,1,33.23,15.31l16.88,41.44a26.77,26.77,0,0,1-8.85,31.61l-7,5.16,8.66,26.14a26.76,26.76,0,0,1-14.61,32.92L2053,2727.9A26.72,26.72,0,0,1,2042.2,2730.18Zm-7.1-108.64q10.38,23.19,20.74,46.56l14.64-6.45-7.11-21.43a26.79,26.79,0,0,1,9.47-29.93l3.09-2.29Z" transform="translate(-589.42 -401.83)"/><path class="cls-3" d="M2039.35,1785.66a108.51,108.51,0,0,1-88.75-46.05,19.13,19.13,0,1,1,31.29-22,70.25,70.25,0,0,0,57.45,29.8h.45a70.26,70.26,0,0,0,57.45-30.57,19.12,19.12,0,1,1,31.56,21.61,108.49,108.49,0,0,1-88.76,47.21Z" transform="translate(-589.42 -401.83)"/><path class="cls-3" d="M1932.05,1769.47a19.13,19.13,0,0,1-8.47-36.29c16.84-8.31,27.05-22.55,31.22-43.54a19.13,19.13,0,0,1,37.53,7.46c-6.55,33-24,56.66-51.84,70.39A19.05,19.05,0,0,1,1932.05,1769.47Z" transform="translate(-589.42 -401.83)"/><path class="cls-3" d="M1944.18,2154.25c-72.08,0-167.44-43-262.63-150.48a19.12,19.12,0,1,1,28.63-25.36c115.54,130.48,225.66,157.55,283.48,126.5,37.92-20.36,51.5-66.5,36.33-123.43a19.13,19.13,0,0,1,37-9.86c20.07,75.25-.57,137.68-55.19,167C1993,2148.7,1970.06,2154.25,1944.18,2154.25Z" transform="translate(-589.42 -401.83)"/><path class="cls-3" d="M1754.31,2286.2a19.13,19.13,0,0,1-8.93-36.06,297,297,0,0,1,109.06-33,19.13,19.13,0,0,1,3.86,38.07,258.77,258.77,0,0,0-95.08,28.78A19,19,0,0,1,1754.31,2286.2Z" transform="translate(-589.42 -401.83)"/><path class="cls-3" d="M2184.47,2197.43a19,19,0,0,1-6.89-1.3c-6.54-2.52-25.54-5.91-79.23-.2a19.13,19.13,0,1,1-4-38c48.4-5.15,79.24-4.33,97.07,2.56a19.13,19.13,0,0,1-6.9,37Z" transform="translate(-589.42 -401.83)"/><path class="cls-3" d="M2226,2355.59a26.78,26.78,0,0,1-24-14.93c-.54-1.09-1.1-2.16-1.66-3.22l-.71-1.37a26.82,26.82,0,0,1-2.94-14.34,107,107,0,0,0,.07-18,26.77,26.77,0,0,1,16.43-27.45c47.29-19.49,64-32.86,69.79-39.09a26.75,26.75,0,0,1,30.93-6.12c14.36,6.67,58.06,27,54.83,65.79a26.78,26.78,0,0,1-19.12,23.47l-116.05,34.15A26.7,26.7,0,0,1,2226,2355.59Zm116-60.94h0Z" transform="translate(-589.42 -401.83)"/><path class="cls-3" d="M2226.13,971.08a187.92,187.92,0,0,1,69.14-45.23c26-9.94,54-13.87,81.4-12.58a204.88,204.88,0,0,1,78.56,19.91,193.16,193.16,0,0,1,62.68,48.13,2.2,2.2,0,0,1-3,3.18c-40.76-31-90.31-46.17-138.31-43.62a210.92,210.92,0,0,0-69.17,15.87,238.15,238.15,0,0,0-60.37,36.68l-.14.11a15.32,15.32,0,0,1-20.79-22.45Z" transform="translate(-589.42 -401.83)"/><path class="cls-3" d="M2275.22,920.38c-7.83,6-16.31,10.6-24.84,15.08s-17.36,8.33-26.11,12.45c-17.57,8-35.18,17-54.44,24.14a2.28,2.28,0,0,1-2.93-1.33,2.31,2.31,0,0,1,.34-2.19,275.31,275.31,0,0,1,42.18-43.88,214.41,214.41,0,0,1,24.51-18c8.59-5.26,17.42-10,27-13.3a15.5,15.5,0,0,1,14.42,27Z" transform="translate(-589.42 -401.83)"/><path class="cls-3" d="M2283.87,1353.9a19.13,19.13,0,0,1-18.69-15.15c-5.73-26.93-15.1-43.59-26.39-46.93-8.23-2.46-33.49-2.1-89.1,53.57a19.13,19.13,0,0,1-27.07-27c53-53.08,93.39-73.17,127-63.22,26.1,7.73,43.91,33.18,52.95,75.66a19.13,19.13,0,0,1-14.74,22.69A19.39,19.39,0,0,1,2283.87,1353.9Z" transform="translate(-589.42 -401.83)"/><path class="cls-9" d="M2154.64,3409.09c-6.53,3-8,17.29-3.3,31.9s13.86,24,20.37,21,8-17.32,3.3-31.92S2161.18,3406.05,2154.64,3409.09Z" transform="translate(-589.42 -401.83)"/><path class="cls-3" d="M2169.15,3470.16a15.69,15.69,0,0,1-6.3-1.36c-7.68-3.35-14.7-12.87-18.78-25.46-5.26-16.35-4.43-35.75,7.36-41.2a14.52,14.52,0,0,1,12.11.1c7.69,3.37,14.7,12.88,18.75,25.46,5.27,16.34,4.43,35.75-7.37,41.2A13.7,13.7,0,0,1,2169.15,3470.16Zm-11.45-53.78c-1.41,2.32-2.81,10.64.93,22.26,3.2,9.88,8,15,10.11,16.05,1.27-2,2.8-10.45-1-22.3C2164.57,3422.59,2159.81,3417.48,2157.7,3416.38Zm-.57-.22Zm-2.49-7.07h0Z" transform="translate(-589.42 -401.83)"/><path class="cls-6" d="M1834.38,2292.41a18.43,18.43,0,1,1-18.43,18.43,18.42,18.42,0,0,1,18.43-18.43" transform="translate(-589.42 -401.83)"/><path class="cls-6" d="M2127.31,2216.67a18.44,18.44,0,1,1-18.43,18.43,18.43,18.43,0,0,1,18.43-18.43" transform="translate(-589.42 -401.83)"/><g class="cls-5"><path class="cls-6" d="M1457.11,1841.89c237.26,215.18,600.67,209.68,831.32-12.56-240.61,161.28-571,160.21-786.11-33.88-77.4-32.23-170.18,98.31-223.67-66.92a109.31,109.31,0,0,0,178.46,113.36" transform="translate(-589.42 -401.83)"/></g><g class="cls-5"><path class="cls-6" d="M1432,1649q34.62,28,34.47,92.64,42.82-40.32,18.93-99.63a313.14,313.14,0,0,0-9-236.14q152.85-120.75,125.54-186.36L1746,1179l-196-15.79q74.64,97.35-149.39,229.63Q1494,1480.76,1432,1649" transform="translate(-589.42 -401.83)"/></g><g class="cls-5"><path class="cls-6" d="M2233.61,1034.67q-32.37-3.36-58.79,28.42,43.91,38.16,62.74,138.49,59.13,64,84.72,76.71,5.19-57.84-31.88-94.64-34.71-63-56.79-149" transform="translate(-589.42 -401.83)"/></g><g class="cls-5"><path class="cls-6" d="M1231,1652.79q66.54-403,255.71-488.27-160,217.31-183.76,405.73a78.91,78.91,0,0,0,115.57,32.88q17.06,62.71,29.89,111.59-27.23,57.27-75.81-28.57-31.14-53.1-83.32,20.66-66.55-21.91-58.28-54" transform="translate(-589.42 -401.83)"/></g><g class="cls-5"><path class="cls-6" d="M1060.85,1104.72q132.21-193.47,258.8-270.27-335.23,324.91-94.47,599.36,48.85-152.07,219.2-298.92-158.84,262.92-210.82,488.91Q1000.84,1413,1060.85,1104.72" transform="translate(-589.42 -401.83)"/></g><g class="cls-5"><path class="cls-6" d="M1513.5,1132.53q72.52,43.08,198.86,25.32-185.41-32.55-15.94-119.57-150.9,32.67-182.92,94.25" transform="translate(-589.42 -401.83)"/></g><g class="cls-5"><path class="cls-6" d="M1421.06,961.81q14.19,259.25,254.5,58.35-168.4,68.79-254.5-58.35" transform="translate(-589.42 -401.83)"/></g><g class="cls-5"><path class="cls-6" d="M1516.49,2458a137.9,137.9,0,0,0,10.31,10.36c-3.58-3.58-7-7-10.31-10.36M1404.81,2325.4q139.26,30.54,232.77,81.87-41.25,13.38-95.25,6.78l0,0-.22-.05c-3.45-.42-7-.89-10.52-1.45q-57.76-5.79-4.73,55.83,54.4,49.35,179.43,67.39,41.61,99.64,140.77,94.95-61.78,47.72-172.65-38.16Q1374.47,2552.46,1404.81,2325.4Z" transform="translate(-589.42 -401.83)"/></g><g class="cls-5"><path class="cls-6" d="M1848.27,2236.78q-240.06-371-48.35-170.28,102.84,90.49,99.63,117.57,90.71,11.4,113.58-18.93,48.86-42.32,73.73-35.87,33.91,40.93-43.49,75.19-32.41,87-76.07,33.41-76.35-25.66-119-1.09" transform="translate(-589.42 -401.83)"/></g><g class="cls-5"><path class="cls-6" d="M2157.6,1982.8q57,54.08,50.82,71.73,12.7,215.1,86.68,169.38,4.71,51.68-67.75,52.8-65.05-157.41-69.75-293.91" transform="translate(-589.42 -401.83)"/></g><g class="cls-5"><path class="cls-6" d="M1900.23,2623.85l29.15,81.2q-33.35,20.73-109.29,10.52a314.57,314.57,0,0,1-63.51-10.45h0q-58.38-10.26-54.62,48.41c3.09,14.86,9.78,29.92,20.18,45.17q-8,73.77,0,133.51,22.69,30.4-15.94,61.78-7.25,38.85-21.92,63.76-70,147.83,113.24,218.12-199.23-4.54-228.85-140,63.61-167.94,75.6-178.24,3.69-113.12,6.48-160.64-36.11-84.94-34.69-129.55a571.39,571.39,0,0,1,62.68-44.3q138.89,77,221.49.71" transform="translate(-589.42 -401.83)"/></g><g class="cls-5"><path class="cls-6" d="M2204.28,3230q-125.55,9.09-177.91-12.06,13.31-95.41-47.33-257.82l81.76-22.05q77.49,217.8,143.48,291.93" transform="translate(-589.42 -401.83)"/></g><g class="cls-5"><path class="cls-6" d="M1591.06,3190.92q31.62,85,78.09,69.88-81.36,73,77.9,220-94.35,61.52-233.93-197.54,3.23-110.65,77.94-92.33" transform="translate(-589.42 -401.83)"/></g><g class="cls-5"><path class="cls-6" d="M2435.64,2825.79,2889.79,2665q-423.23,98.92-536-193.31l-265,160.07q113.91,343.92,113.93,343.94,233-149.94,232.92-149.95" transform="translate(-589.42 -401.83)"/></g><g class="cls-5"><path class="cls-6" d="M2113.61,2595.28q197.46-152.4,487.24-231.15-280.12,82.2-387.61-21.92-175.27,133.88-154.83,143,31.14,108.39,55.2,110.06" transform="translate(-589.42 -401.83)"/></g><g class="cls-5"><path class="cls-6" d="M2363.66,3335.53q424.15-94.08,619.69-179.76-130.07-22.28-75.78-125.18-455.51,98.89-543.91,304.94" transform="translate(-589.42 -401.83)"/></g><g class="cls-5"><path class="cls-6" d="M1931.56,2658.8q201.9,570.49,229.19,415.38L1984,2673.91q-51.88-143.28-154.4-97.64,28.39,52.3,101.94,82.53" transform="translate(-589.42 -401.83)"/></g><g class="cls-13"><path class="cls-11" d="M2241.42,890.63q-40.82,15.27-40.79,15.29-161.91-283.86-790.44-96.8,675.19-271.27,831.23,81.51" transform="translate(-589.42 -401.83)"/></g><g class="cls-13"><path class="cls-11" d="M1207.06,964.6Q1453.24,600.43,1419.6,1059q-53.2-270.06-212.54-94.38" transform="translate(-589.42 -401.83)"/></g><path class="cls-3" d="M1481.15,1162.23a26.72,26.72,0,0,1-24.27-15.46c-63.68-136.61-87-261.81-69.4-372.11A26.78,26.78,0,0,1,1401.77,755c211.09-107.59,452.23-129.43,679-61.49a27.11,27.11,0,0,1,7.53,3.62c57.62,39.77,119.25,103.29,183.17,188.78a26.78,26.78,0,0,1-19.53,42.75c-351.43,25.23-604.94,101.68-753.5,227.22A26.78,26.78,0,0,1,1481.15,1162.23Zm-42.69-365.67c-10.94,88.05,6.89,187.57,53.08,296.41,152-114.05,389.43-185.84,706.94-213.74-48.16-59.73-94.17-105.21-137.19-135.6C1853.42,682.45,1633,701.25,1438.46,796.56Z" transform="translate(-589.42 -401.83)"/><path class="cls-3" d="M1230.1,1695.24a26.76,26.76,0,0,1-21.47-10.77c-157.3-211.08-219.29-402.23-184.26-568.14a26.73,26.73,0,0,1,3.09-8c214.06-365.92,647.19-536.49,1053.3-414.77a26.59,26.59,0,0,1,7.52,3.6c55.2,38.08,114.07,98,175.18,178.18,106.72-50.22,246.82-52.23,325.42,41,45.55,54,57.16,117.5,31.87,174.19-37.86,84.86-149.32,140.28-290.88,144.66a26.9,26.9,0,0,1-27.55-24.9c-6.42-91.46-20.76-155.28-44.6-197.09-63.79,67-140.16,114.59-222.64,138.32-238.13,68.51-427.37,74-549.4,16.34-138.43,132.4-219.51,309.9-228.84,501.9a26.75,26.75,0,0,1-26.74,25.48ZM1075.91,1131.6c-26.77,134.33,18.39,289.66,134.3,462.47,25.7-184,113.92-351.76,252.9-478.4a26.79,26.79,0,0,1,31-3.63c108.34,60,290.29,55.87,526.15-12,82.36-23.69,158.23-74.5,219.4-146.93a26.78,26.78,0,0,1,20.2-9.49,27.8,27.8,0,0,1,20.38,9.1c39.67,45.14,63.19,117.81,73.36,227.5,107.09-8.76,191.35-51.27,218.23-111.53,17.08-38.28,8.82-79-23.91-117.84-64.5-76.51-192.08-66.37-279.39-18a26.79,26.79,0,0,1-34.52-7.52c-61.17-82.85-119.26-144-172.73-181.71C1681.52,631.83,1277.51,790.91,1075.91,1131.6Z" transform="translate(-589.42 -401.83)"/><g class="cls-14"><polygon class="cls-11" points="2603.94 2185.56 1882.75 2437.95 2559.73 2259.41 2666.9 2519.55 2603.94 2185.56"/></g><g class="cls-14"><polygon class="cls-11" points="2225.46 1934.51 1753.94 2076.2 2188.06 1996.38 2298.66 2274.36 2225.46 1934.51"/></g><g class="cls-14"><polygon class="cls-11" points="1987.71 1833.06 1621.14 1955.53 1953.42 1871.32 2008.23 1984.9 1987.71 1833.06"/></g><path class="cls-3" d="M2111.31,2641.88a26.76,26.76,0,0,1-24.8-16.68l-57.29-140.72a26.74,26.74,0,0,1,5.3-28.45l123.6-131.32a26.78,26.78,0,0,1,11.94-7.33l396.82-116.84a26.78,26.78,0,0,1,33.14,17.77l48.92,158a26.78,26.78,0,0,1-19.09,33.9l-297.67,74.43-204.92,152A26.73,26.73,0,0,1,2111.31,2641.88Zm-26-161.67,37.79,92.81,181.46-134.6A26.81,26.81,0,0,1,2314,2434l275.4-68.86-32.74-105.73-364.52,107.34Z" transform="translate(-589.42 -401.83)"/><path class="cls-3" d="M2214.27,3037.33a26.78,26.78,0,0,1-25.42-18.36l-125.48-378.75a26.8,26.8,0,0,1,9.47-29.93l231.71-171.87A26.81,26.81,0,0,1,2314,2434l494.37-123.6a26.76,26.76,0,0,1,32.25,18.66l96.52,339.77a26.78,26.78,0,0,1-17.71,32.86l-504,158.58L2232.5,3030.17A26.83,26.83,0,0,1,2214.27,3037.33Zm-94-395.56,106.27,320.79,156.8-145.68a26.89,26.89,0,0,1,10.19-5.92l484.95-152.58-82.32-289.77-464,116Z" transform="translate(-589.42 -401.83)"/><path class="cls-3" d="M2278,3405.93a26.77,26.77,0,0,1-25-17.13L2131.38,3074a26.77,26.77,0,0,1,6.76-29.27l245.24-227.88a26.78,26.78,0,0,1,10.19-5.93l791.75-249.12a26.78,26.78,0,0,1,34,19.12l81.12,328.3a26.79,26.79,0,0,1-18,32l-728.32,228.09-258.32,229.83A26.85,26.85,0,0,1,2278,3405.93Zm-90.16-334.28,101.21,261.82,233.78-208a26.68,26.68,0,0,1,9.79-5.54l709.78-222.29-68.24-276.16-758.79,238.74Z" transform="translate(-589.42 -401.83)"/><g class="cls-14"><path class="cls-11" d="M3069.19,2751l17.13-5.3A11,11,0,0,1,3100,2753l34.43,111.37a11,11,0,0,1-7.22,13.7l-17.13,5.31a11,11,0,0,1-13.73-7.24l-34.43-111.38a11,11,0,0,1,7.25-13.69" transform="translate(-589.42 -401.83)"/></g><g class="cls-14"><path class="cls-11" d="M2730.4,2464.24l17.13-5.29a11,11,0,0,1,13.73,7.23l34.44,111.37a11,11,0,0,1-7.26,13.71l-17.12,5.29a11,11,0,0,1-13.73-7.22L2723.15,2478a11,11,0,0,1,7.25-13.72" transform="translate(-589.42 -401.83)"/></g><g class="cls-14"><path class="cls-11" d="M2505.86,2309.89l7.41-2.29a4.75,4.75,0,0,1,5.94,3.13l14.89,48.21a4.75,4.75,0,0,1-3.12,5.93l-7.41,2.29a4.77,4.77,0,0,1-6-3.12l-14.88-48.22a4.74,4.74,0,0,1,3.12-5.93" transform="translate(-589.42 -401.83)"/></g><path class="cls-3" d="M1694.33,1378.11a19.12,19.12,0,0,1-16.28-29.14,134.36,134.36,0,0,1,210.57-23.65,19.14,19.14,0,0,1-27.37,26.75,96.07,96.07,0,0,0-150.6,16.93A19.13,19.13,0,0,1,1694.33,1378.11Z" transform="translate(-589.42 -401.83)"/><path class="cls-3" d="M1789.76,1407.2c58.06-2.47,106.25,60,107.62,139.44S1852.8,1692.55,1794.74,1695s-106.24-60-107.62-139.43S1731.7,1409.67,1789.76,1407.2Z" transform="translate(-589.42 -401.83)"/><path class="cls-15" d="M1790.92,1443.08c17.28,8,22.77,34.61,12.27,59.42s-33,38.44-50.28,30.44-22.77-34.61-12.27-59.42S1773.65,1435.08,1790.92,1443.08Z" transform="translate(-589.42 -401.83)"/><g class="cls-16"><path class="cls-15" d="M1837.17,1611.73c8,6.36,7.78,20.86-.4,32.37s-21.28,15.69-29.24,9.32-7.78-20.87.41-32.38S1829.21,1605.36,1837.17,1611.73Z" transform="translate(-589.42 -401.83)"/></g><path class="cls-3" d="M2198.92,1390.34c47.13-2.71,85.62,51.13,86,120.26s-37.57,127.36-84.7,130.07-85.63-51.13-86-120.26S2151.78,1393.05,2198.92,1390.34Z" transform="translate(-589.42 -401.83)"/><path class="cls-15" d="M2199.51,1421.54c13.94,6.8,18.14,29.89,9.38,51.57s-27.15,33.76-41.09,27-18.14-29.89-9.38-51.57S2185.57,1414.75,2199.51,1421.54Z" transform="translate(-589.42 -401.83)"/><g class="cls-16"><path class="cls-15" d="M2235.41,1567.8c6.39,5.46,6.11,18.08-.65,28.17s-17.41,13.85-23.81,8.39-6.11-18.08.64-28.17S2229,1562.34,2235.41,1567.8Z" transform="translate(-589.42 -401.83)"/></g></svg>